HIERARCHY
ROOT Hips
{
  OFFSET 5.80788e-005 67.184 3.4734
  CHANNELS 6 Xposition Yposition Zposition Zrotation Xrotation Yrotation
  JOINT Chest
  {
    OFFSET 0 8.7983 -4.7612
    CHANNELS 6 Xposition Yposition Zposition Zrotation Xrotation Yrotation
    JOINT Chest2
    {
      OFFSET 0 8.0291 0.4195
      CHANNELS 6 Xposition Yposition Zposition Zrotation Xrotation Yrotation
      JOINT Chest3
      {
        OFFSET 0 9.9351 -2.2114
        CHANNELS 6 Xposition Yposition Zposition Zrotation Xrotation Yrotation
        JOINT Neck
        {
          OFFSET 0 22.3885 -0.4656
          CHANNELS 6 Xposition Yposition Zposition Zrotation Xrotation Yrotation
          JOINT Head
          {
            OFFSET -0.0001 12.643 3.4389
            CHANNELS 6 Xposition Yposition Zposition Zrotation Xrotation Yrotation
            End Site
            {
              OFFSET 0.0001 17.6655 0.5274
            }
          }
        }
        JOINT LeftCollar
        {
          OFFSET 2.2603 21.606 7.4023
          CHANNELS 6 Xposition Yposition Zposition Zrotation Xrotation Yrotation
          JOINT LeftShoulder
          {
            OFFSET 13.5163 -1.1332 -5.0146
            CHANNELS 6 Xposition Yposition Zposition Zrotation Xrotation Yrotation
            JOINT LeftElbow
            {
              OFFSET -0.0995 -28.05 -0.2431
              CHANNELS 6 Xposition Yposition Zposition Zrotation Xrotation Yrotation
              JOINT LeftWrist
              {
                OFFSET 0.0679 -23.3996 -0.1402
                CHANNELS 6 Xposition Yposition Zposition Zrotation Xrotation Yrotation
                JOINT LeftFinger1
                {
                  OFFSET 0.7932 -9.069 2.5189
                  CHANNELS 6 Xposition Yposition Zposition Zrotation Xrotation Yrotation
                  JOINT LeftFinger11
                  {
                    OFFSET -0.8272 -3.3923 0.5977
                    CHANNELS 6 Xposition Yposition Zposition Zrotation Xrotation Yrotation
                    JOINT LeftFinger12
                    {
                      OFFSET -0.5649 -2.3158 0.4082
                      CHANNELS 6 Xposition Yposition Zposition Zrotation Xrotation Yrotation
                      End Site
                      {
                        OFFSET -0.4919 -1.6479 0.2673
                      }
                    }
                  }
                }
                JOINT LeftFinger2
                {
                  OFFSET 0.9159 -9.2044 0.2193
                  CHANNELS 6 Xposition Yposition Zposition Zrotation Xrotation Yrotation
                  JOINT LeftFinger21
                  {
                    OFFSET 0.0117 -4.1944 -0.0248
                    CHANNELS 6 Xposition Yposition Zposition Zrotation Xrotation Yrotation
                    JOINT LeftFinger22
                    {
                      OFFSET 0.0071 -2.3249 -0.0142
                      CHANNELS 6 Xposition Yposition Zposition Zrotation Xrotation Yrotation
                      End Site
                      {
                        OFFSET -0.1475 -2.0882 0.0028
                      }
                    }
                  }
                }
                JOINT LeftFinger3
                {
                  OFFSET 0.6113 -8.7231 -2.0637
                  CHANNELS 6 Xposition Yposition Zposition Zrotation Xrotation Yrotation
                  JOINT LeftFinger31
                  {
                    OFFSET -0.1927 -3.8059 -0.2383
                    CHANNELS 6 Xposition Yposition Zposition Zrotation Xrotation Yrotation
                    JOINT LeftFinger32
                    {
                      OFFSET -0.1091 -2.1688 -0.1362
                      CHANNELS 6 Xposition Yposition Zposition Zrotation Xrotation Yrotation
                      End Site
                      {
                        OFFSET -0.2358 -1.9176 -0.0906
                      }
                    }
                  }
                }
                JOINT LeftFinger4
                {
                  OFFSET -0.6151 -8.0947 -3.5641
                  CHANNELS 6 Xposition Yposition Zposition Zrotation Xrotation Yrotation
                  JOINT LeftFinger41
                  {
                    OFFSET -0.4882 -2.341 -0.6462
                    CHANNELS 6 Xposition Yposition Zposition Zrotation Xrotation Yrotation
                    JOINT LeftFinger42
                    {
                      OFFSET -0.3575 -1.7167 -0.4742
                      CHANNELS 6 Xposition Yposition Zposition Zrotation Xrotation Yrotation
                      End Site
                      {
                        OFFSET -0.4187 -1.5237 -0.3496
                      }
                    }
                  }
                }
                JOINT LeftFinger0
                {
                  OFFSET -1.42 -1.8761 1.4223
                  CHANNELS 6 Xposition Yposition Zposition Zrotation Xrotation Yrotation
                  JOINT LeftFinger01
                  {
                    OFFSET -1.1471 -3.4929 2.6334
                    CHANNELS 6 Xposition Yposition Zposition Zrotation Xrotation Yrotation
                    JOINT LeftFinger02
                    {
                      OFFSET -0.823 -2.3 1.6571
                      CHANNELS 6 Xposition Yposition Zposition Zrotation Xrotation Yrotation
                      End Site
                      {
                        OFFSET -0.5822 -1.6914 1.1582
                      }
                    }
                  }
                }
              }
            }
          }
        }
        JOINT RightCollar
        {
          OFFSET -2.2603 21.606 7.4023
          CHANNELS 6 Xposition Yposition Zposition Zrotation Xrotation Yrotation
          JOINT RightShoulder
          {
            OFFSET -13.5187 -1.1334 -5.0155
            CHANNELS 6 Xposition Yposition Zposition Zrotation Xrotation Yrotation
            JOINT RightElbow
            {
              OFFSET 0.0994 -28.0499 -0.2431
              CHANNELS 6 Xposition Yposition Zposition Zrotation Xrotation Yrotation
              JOINT RightWrist
              {
                OFFSET -0.0679 -23.3996 -0.1402
                CHANNELS 6 Xposition Yposition Zposition Zrotation Xrotation Yrotation
                JOINT RightFinger1
                {
                  OFFSET -0.7932 -9.0691 2.5189
                  CHANNELS 6 Xposition Yposition Zposition Zrotation Xrotation Yrotation
                  JOINT RightFinger11
                  {
                    OFFSET 0.8272 -3.3923 0.5977
                    CHANNELS 6 Xposition Yposition Zposition Zrotation Xrotation Yrotation
                    JOINT RightFinger12
                    {
                      OFFSET 0.565 -2.3158 0.4082
                      CHANNELS 6 Xposition Yposition Zposition Zrotation Xrotation Yrotation
                      End Site
                      {
                        OFFSET 0.4919 -1.6479 0.2673
                      }
                    }
                  }
                }
                JOINT RightFinger2
                {
                  OFFSET -0.916 -9.2044 0.2193
                  CHANNELS 6 Xposition Yposition Zposition Zrotation Xrotation Yrotation
                  JOINT RightFinger21
                  {
                    OFFSET -0.0117 -4.1944 -0.0248
                    CHANNELS 6 Xposition Yposition Zposition Zrotation Xrotation Yrotation
                    JOINT RightFinger22
                    {
                      OFFSET -0.0071 -2.3249 -0.0142
                      CHANNELS 6 Xposition Yposition Zposition Zrotation Xrotation Yrotation
                      End Site
                      {
                        OFFSET 0.1475 -2.0882 0.0028
                      }
                    }
                  }
                }
                JOINT RightFinger3
                {
                  OFFSET -0.6113 -8.7231 -2.0637
                  CHANNELS 6 Xposition Yposition Zposition Zrotation Xrotation Yrotation
                  JOINT RightFinger31
                  {
                    OFFSET 0.1927 -3.8059 -0.2383
                    CHANNELS 6 Xposition Yposition Zposition Zrotation Xrotation Yrotation
                    JOINT RightFinger32
                    {
                      OFFSET 0.1091 -2.1688 -0.1362
                      CHANNELS 6 Xposition Yposition Zposition Zrotation Xrotation Yrotation
                      End Site
                      {
                        OFFSET 0.2358 -1.9176 -0.0906
                      }
                    }
                  }
                }
                JOINT RightFinger4
                {
                  OFFSET 0.6151 -8.0947 -3.564
                  CHANNELS 6 Xposition Yposition Zposition Zrotation Xrotation Yrotation
                  JOINT RightFinger41
                  {
                    OFFSET 0.4882 -2.341 -0.6462
                    CHANNELS 6 Xposition Yposition Zposition Zrotation Xrotation Yrotation
                    JOINT RightFinger42
                    {
                      OFFSET 0.3574 -1.7166 -0.4742
                      CHANNELS 6 Xposition Yposition Zposition Zrotation Xrotation Yrotation
                      End Site
                      {
                        OFFSET 0.4187 -1.5237 -0.3496
                      }
                    }
                  }
                }
                JOINT RightFinger0
                {
                  OFFSET 1.4199 -1.8761 1.4221
                  CHANNELS 6 Xposition Yposition Zposition Zrotation Xrotation Yrotation
                  JOINT RightFinger01
                  {
                    OFFSET 1.1472 -3.4929 2.6336
                    CHANNELS 6 Xposition Yposition Zposition Zrotation Xrotation Yrotation
                    JOINT RightFinger02
                    {
                      OFFSET 0.8229 -2.3 1.6571
                      CHANNELS 6 Xposition Yposition Zposition Zrotation Xrotation Yrotation
                      End Site
                      {
                        OFFSET 0.5822 -1.6914 1.1582
                      }
                    }
                  }
                }
              }
            }
          }
        }
      }
    }
  }
  JOINT RightHip
  {
    OFFSET -9.412 3.9771 -0.7758
    CHANNELS 6 Xposition Yposition Zposition Zrotation Xrotation Yrotation
    JOINT RightKnee
    {
      OFFSET -0.7531 -40.938 0
      CHANNELS 6 Xposition Yposition Zposition Zrotation Xrotation Yrotation
      JOINT RightAnkle
      {
        OFFSET 0 -40.1986 0
        CHANNELS 6 Xposition Yposition Zposition Zrotation Xrotation Yrotation
        JOINT RightToe
        {
          OFFSET 0 -4.4182 9.239
          CHANNELS 6 Xposition Yposition Zposition Zrotation Xrotation Yrotation
          End Site
          {
            OFFSET 0 0 6.1981
          }
        }
      }
    }
  }
  JOINT LeftHip
  {
    OFFSET 9.4119 3.9773 -0.7758
    CHANNELS 6 Xposition Yposition Zposition Zrotation Xrotation Yrotation
    JOINT LeftKnee
    {
      OFFSET 0.7532 -40.9383 0
      CHANNELS 6 Xposition Yposition Zposition Zrotation Xrotation Yrotation
      JOINT LeftAnkle
      {
        OFFSET 0 -40.1986 0
        CHANNELS 6 Xposition Yposition Zposition Zrotation Xrotation Yrotation
        JOINT LeftToe
        {
          OFFSET 0 -4.4182 9.239
          CHANNELS 6 Xposition Yposition Zposition Zrotation Xrotation Yrotation
          End Site
          {
            OFFSET 0 0 6.1981
          }
        }
      }
    }
  }
}
MOTION
Frames:	4
Frame Time:	0.0333333
40.0674 9.64891 23.979 179.997 58.9977 4.57696e-007 -7.10543e-015 8.7983 -4.7612 0.545714 7.93669 -0.571464 0 8.0291 0.4195 1.18962 15.8671 -1.23819 0 9.9351 -2.2114 1.18963 15.8671 -1.2382 0 22.3885 -0.4656 -4.765e-006 13.9934 3.37646e-006 -0.0001 12.643 3.4389 5.6006e-007 0.662212 -2.2883e-007 2.2603 21.606 7.4023 -48.1293 -3.4318 -17.2411 13.5163 -1.1332 -5.0146 100.262 21.7544 -47.7513 -0.0995 -28.05 -0.2431 -0.834475 -6.54415 -36.4747 0.0679 -23.3996 -0.1402 2.81727 -5.32014 -7.37296 0.7932 -9.069 2.5189 7.95139e-016 1.27222e-014 7.95139e-016 -0.8272 -3.3923 0.5977 3.97569e-016 6.36111e-015 3.97569e-016 -0.5649 -2.3158 0.4082 7.95139e-016 1.27222e-014 3.97569e-016 0.9159 -9.2044 0.2193 7.95139e-016 1.27222e-014 7.95139e-016 0.0117 -4.1944 -0.0248 -0.0128118 0.00233277 7.56224e-005 0.0071 -2.3249 -0.0142 0 0 -7.95139e-016 0.6113 -8.7231 -2.0637 7.95139e-016 1.27222e-014 7.95139e-016 -0.1927 -3.8059 -0.2383 -0.016048 0.00298685 0.000850748 -0.1091 -2.1688 -0.1362 -3.97569e-016 6.36111e-015 3.97569e-016 -0.6151 -8.0947 -3.5641 7.95139e-016 1.27222e-014 7.95139e-016 -0.4882 -2.341 -0.6462 -0.0125914 0.00312459 0.0028209 -0.3575 -1.7167 -0.4742 4.41391e-032 -6.36111e-015 3.97569e-016 -1.42 -1.8761 1.4223 7.95139e-016 1.27222e-014 7.95139e-016 -1.1471 -3.4929 2.6334 3.97569e-016 6.36111e-015 3.97569e-016 -0.823 -2.3 1.6571 7.95139e-016 1.27222e-014 3.97569e-016 -2.2603 21.606 7.4023 45.5882 -6.34217 -6.67221 -13.5187 -1.1334 -5.0155 -74.8654 -58.7972 -40.6997 0.0994 -28.0499 -0.2431 52.1051 8.40125 90.4395 -0.0679 -23.3996 -0.1402 -16.1933 -11.6261 -29.6167 -0.7932 -9.0691 2.5189 -9.2822e-006 2.02579e-007 -3.08738e-006 0.8272 -3.3923 0.5977 1.27849e-007 -1.02583e-006 -1.51268e-006 0.565 -2.3158 0.4082 -2.78299e-015 -7.95139e-016 -0 -0.916 -9.2044 0.2193 -9.2822e-006 2.02579e-007 -3.08738e-006 -0.0117 -4.1944 -0.0248 0.0129801 0.0023218 -8.05333e-005 -0.0071 -2.3249 -0.0142 4.77083e-015 -4.77083e-015 -0 -0.6113 -8.7231 -2.0637 -9.2822e-006 2.02579e-007 -3.08738e-006 0.1927 -3.8059 -0.2383 0.0163539 0.00303459 -0.000870584 0.1091 -2.1688 -0.1362 -7.15625e-015 -5.56597e-015 -3.18055e-015 0.6151 -8.0947 -3.564 -9.2822e-006 2.02579e-007 -3.08738e-006 0.4882 -2.341 -0.6462 0.0145501 0.00366908 -0.00325648 0.3574 -1.7166 -0.4742 4.77083e-015 -3.18055e-015 -0 1.4199 -1.8761 1.4221 -9.2822e-006 2.02579e-007 -3.08738e-006 1.1472 -3.4929 2.6336 1.27849e-007 -1.02583e-006 -1.51268e-006 0.8229 -2.3 1.6571 -2.78299e-015 -7.95139e-016 -0 -9.412 3.9771 -0.7758 -42.3948 -48.3409 -72.7243 -0.7531 -40.938 0 -121.904 41.2843 138.985 0 -40.1986 -7.10543e-015 -17.8121 -5.0302 -33.5133 -7.10543e-015 -4.4182 9.239 3.18055e-015 -1.27222e-014 -4.77083e-015 9.4119 3.9773 -0.7758 59.5561 -50.7601 86.7873 0.7532 -40.9383 0 132.285 40.123 -127.157 0 -40.1986 7.10543e-015 23.3919 -12.2594 11.2625 3.55271e-015 -4.4182 9.239 2.03653e-007 -8.30035e-006 7.75436e-006 
40.0685 9.64895 24.0831 179.997 58.9977 4.04683e-010 7.10543e-015 8.7983 -4.7612 0.546554 7.86168 -0.569408 0 8.0291 0.4195 1.18989 15.7171 -1.23301 0 9.9351 -2.2114 1.18989 15.7171 -1.23302 -7.10543e-015 22.3885 -0.4656 -3.90293e-006 13.9934 2.97795e-006 -0.0001 12.643 3.4389 7.39859e-008 0.618231 8.2356e-007 2.2603 21.606 7.4023 -47.8064 -3.47674 -16.7609 13.5163 -1.1332 -5.0146 99.5709 21.277 -47.5248 -0.0995 -28.05 -0.2431 -0.745666 -6.20722 -36.4639 0.0679 -23.3996 -0.1402 2.62573 -5.28267 -7.70245 0.7932 -9.069 2.5189 8.74653e-015 9.54166e-015 -8.74653e-015 -0.8272 -3.3923 0.5977 9.14409e-015 1.90833e-014 -8.34896e-015 -0.5649 -2.3158 0.4082 8.74653e-015 1.27222e-014 -9.54166e-015 0.9159 -9.2044 0.2193 8.74653e-015 9.54166e-015 -8.74653e-015 0.0117 -4.1944 -0.0248 -0.0128221 0.00232886 9.00646e-005 0.0071 -2.3249 -0.0142 -7.95139e-016 6.36111e-015 -3.97569e-016 0.6113 -8.7231 -2.0637 8.74653e-015 9.54166e-015 -8.74653e-015 -0.1927 -3.8059 -0.2383 -0.0160461 0.0029939 0.000862078 -0.1091 -2.1688 -0.1362 -3.97569e-016 -3.18055e-015 -7.95139e-016 -0.6151 -8.0947 -3.5641 8.74653e-015 9.54166e-015 -8.74653e-015 -0.4882 -2.341 -0.6462 -0.012607 0.00312452 0.00283105 -0.3575 -1.7167 -0.4742 2.1636e-006 -3.76709e-006 2.10797e-006 -1.42 -1.8761 1.4223 8.74653e-015 9.54166e-015 -8.74653e-015 -1.1471 -3.4929 2.6334 9.14409e-015 1.90833e-014 -8.34896e-015 -0.823 -2.3 1.6571 8.74653e-015 1.27222e-014 -9.54166e-015 -2.2603 21.606 7.4023 45.7026 -6.07762 -6.68146 -13.5187 -1.1334 -5.0155 -74.5765 -58.4331 -40.3902 0.0994 -28.0499 -0.2431 51.6034 8.34669 89.8575 -0.0679 -23.3996 -0.1402 -15.8523 -11.5379 -29.5815 -0.7932 -9.0691 2.5189 7.42483e-006 1.2268e-006 1.75859e-006 0.8272 -3.3923 0.5977 -4.37326e-015 0 -3.18055e-015 0.565 -2.3158 0.4082 -4.37326e-015 -7.95139e-016 -0 -0.916 -9.2044 0.2193 7.42483e-006 1.2268e-006 1.75859e-006 -0.0117 -4.1944 -0.0248 0.0129563 0.00231598 -7.78789e-005 -0.0071 -2.3249 -0.0142 3.97569e-016 -7.95139e-016 3.18055e-015 -0.6113 -8.7231 -2.0637 7.42483e-006 1.2268e-006 1.75859e-006 0.1927 -3.8059 -0.2383 0.0163725 0.00304106 -0.000878948 0.1091 -2.1688 -0.1362 1.03368e-014 5.56597e-015 3.18055e-015 0.6151 -8.0947 -3.564 7.42483e-006 1.2268e-006 1.75859e-006 0.4882 -2.341 -0.6462 0.0145225 0.0036605 -0.00324783 0.3574 -1.7166 -0.4742 -9.54166e-015 6.36111e-015 9.54166e-015 1.4199 -1.8761 1.4221 7.42483e-006 1.2268e-006 1.75859e-006 1.1472 -3.4929 2.6336 -4.37326e-015 0 -3.18055e-015 0.8229 -2.3 1.6571 -4.37326e-015 -7.95139e-016 -0 -9.412 3.9771 -0.7758 -42.392 -48.3421 -72.7233 -0.7531 -40.938 1.42109e-014 -121.906 41.2844 138.984 -1.42109e-014 -40.1986 -3.55271e-015 -17.8131 -5.03042 -33.514 0 -4.4182 9.239 6.36111e-015 1.59028e-015 -1.59028e-015 9.4119 3.9773 -0.7758 59.2155 -50.6739 86.5157 0.7532 -40.9383 -7.10543e-015 132.115 40.4029 -126.895 0 -40.1986 -3.55271e-015 23.3827 -12.2606 11.2632 3.55271e-015 -4.4182 9.239 7.52394e-006 -1.01629e-005 5.89938e-006 
40.0695 9.64898 24.1873 179.997 58.9977 -5.37823e-007 -7.10543e-015 8.7983 -4.7612 0.547392 7.78667 -0.567348 0 8.0291 0.4195 1.19016 15.5671 -1.22784 0 9.9351 -2.2114 1.19017 15.5671 -1.22784 -7.10543e-015 22.3885 -0.4656 -2.57354e-006 13.9934 2.83412e-006 -0.0001 12.643 3.4389 -5.56737e-007 0.574268 2.36122e-007 2.2603 21.606 7.4023 -47.4832 -3.51899 -16.2804 13.5163 -1.1332 -5.0146 98.8837 20.7971 -47.3052 -0.0995 -28.05 -0.2431 -0.656969 -5.87019 -36.4534 0.0679 -23.3996 -0.1402 2.43447 -5.24396 -8.03178 0.7932 -9.069 2.5189 -3.97569e-016 1.27222e-014 7.95139e-016 -0.8272 -3.3923 0.5977 3.97569e-016 3.18055e-015 3.97569e-016 -0.5649 -2.3158 0.4082 1.19271e-015 0 3.97569e-016 0.9159 -9.2044 0.2193 -3.97569e-016 1.27222e-014 7.95139e-016 0.0117 -4.1944 -0.0248 -0.0128303 0.00233464 9.23462e-005 0.0071 -2.3249 -0.0142 -3.97569e-016 3.18055e-015 7.95139e-016 0.6113 -8.7231 -2.0637 -3.97569e-016 1.27222e-014 7.95139e-016 -0.1927 -3.8059 -0.2383 -0.0160487 0.00299221 0.000859551 -0.1091 -2.1688 -0.1362 -3.97569e-016 3.18055e-015 7.95139e-016 -0.6151 -8.0947 -3.5641 -3.97569e-016 1.27222e-014 7.95139e-016 -0.4882 -2.341 -0.6462 -0.0126062 0.00312897 0.0028383 -0.3575 -1.7167 -0.4742 -1.19271e-015 -3.18055e-015 -3.97569e-016 -1.42 -1.8761 1.4223 -3.97569e-016 1.27222e-014 7.95139e-016 -1.1471 -3.4929 2.6334 3.97569e-016 3.18055e-015 3.97569e-016 -0.823 -2.3 1.6571 1.19271e-015 0 3.97569e-016 -2.2603 21.606 7.4023 45.817 -5.81315 -6.69119 -13.5187 -1.1334 -5.0155 -74.2939 -58.0677 -40.0871 0.0994 -28.0499 -0.2431 51.0969 8.29067 89.2947 -0.0679 -23.3996 -0.1402 -15.5117 -11.449 -29.5475 -0.7932 -9.0691 2.5189 -1.98785e-015 -4.77083e-015 -0 0.8272 -3.3923 0.5977 -4.37326e-015 -7.15625e-015 -6.36111e-015 0.565 -2.3158 0.4082 -7.95139e-016 -7.95139e-015 -3.18055e-015 -0.916 -9.2044 0.2193 -1.98785e-015 -4.77083e-015 -0 -0.0117 -4.1944 -0.0248 0.012986 0.00232109 -8.83292e-005 -0.0071 -2.3249 -0.0142 -3.18055e-015 1.59028e-015 6.36111e-015 -0.6113 -8.7231 -2.0637 -1.98785e-015 -4.77083e-015 -0 0.1927 -3.8059 -0.2383 0.0163634 0.00304272 -0.000879093 0.1091 -2.1688 -0.1362 7.95139e-016 -1.59028e-015 -6.36111e-015 0.6151 -8.0947 -3.564 -1.98785e-015 -4.77083e-015 -0 0.4882 -2.341 -0.6462 0.014586 0.00367942 -0.00326693 0.3574 -1.7166 -0.4742 2.42517e-014 -8.74653e-015 3.18055e-015 1.4199 -1.8761 1.4221 -1.98785e-015 -4.77083e-015 -0 1.1472 -3.4929 2.6336 -4.37326e-015 -7.15625e-015 -6.36111e-015 0.8229 -2.3 1.6571 -7.95139e-016 -7.95139e-015 -3.18055e-015 -9.412 3.9771 -0.7758 -42.3889 -48.3434 -72.722 -0.7531 -40.938 0 -121.907 41.2847 138.983 0 -40.1986 -7.10543e-015 -17.8142 -5.03068 -33.5147 7.10543e-015 -4.4182 9.239 3.45556e-006 1.13372e-005 1.15975e-005 9.4119 3.9773 -0.7758 58.8745 -50.5876 86.2438 0.7532 -40.9383 0 131.944 40.6832 -126.629 0 -40.1986 0 23.3735 -12.2619 11.2636 0 -4.4182 9.239 -3.18055e-015 6.36111e-015 5.96354e-015 
40.0706 9.649 24.2914 179.997 58.9977 1.24845e-006 0 8.7983 -4.7612 0.548228 7.71167 -0.565284 0 8.0291 0.4195 1.19044 15.4171 -1.22266 -7.10543e-015 9.9351 -2.2114 1.19045 15.4172 -1.22266 0 22.3885 -0.4656 -4.7568e-006 13.9934 4.13893e-006 -0.0001 12.643 3.4389 -1.02997e-006 0.530318 2.81061e-007 2.2603 21.606 7.4023 -47.1597 -3.55852 -15.7998 13.5163 -1.1332 -5.0146 98.201 20.3152 -47.0926 -0.0995 -28.05 -0.2431 -0.568419 -5.53329 -36.4434 0.0679 -23.3996 -0.1402 2.24386 -5.202 -8.36081 0.7932 -9.069 2.5189 9.54166e-015 -9.54166e-015 -9.14409e-015 -0.8272 -3.3923 0.5977 8.34896e-015 -3.18055e-015 -9.14409e-015 -0.5649 -2.3158 0.4082 9.54166e-015 -1.27222e-014 -9.14409e-015 0.9159 -9.2044 0.2193 9.54166e-015 -9.54166e-015 -9.14409e-015 0.0117 -4.1944 -0.0248 -0.0128282 0.00233348 8.52665e-005 0.0071 -2.3249 -0.0142 -0 -1.59028e-014 -0 0.6113 -8.7231 -2.0637 9.54166e-015 -9.54166e-015 -9.14409e-015 -0.1927 -3.8059 -0.2383 -0.0160421 0.00299771 0.000856025 -0.1091 -2.1688 -0.1362 4.41391e-032 -3.18055e-015 7.95139e-016 -0.6151 -8.0947 -3.5641 9.54166e-015 -9.54166e-015 -9.14409e-015 -0.4882 -2.341 -0.6462 -0.0125885 0.00311598 0.00282847 -0.3575 -1.7167 -0.4742 -7.95139e-016 -6.36111e-015 -3.97569e-016 -1.42 -1.8761 1.4223 9.54166e-015 -9.54166e-015 -9.14409e-015 -1.1471 -3.4929 2.6334 8.34896e-015 -3.18055e-015 -9.14409e-015 -0.823 -2.3 1.6571 9.54166e-015 -1.27222e-014 -9.14409e-015 -2.2603 21.606 7.4023 45.9314 -5.54869 -6.70146 -13.5187 -1.1334 -5.0155 -74.0176 -57.7014 -39.7902 0.0994 -28.0499 -0.2431 50.5858 8.23347 88.7501 -0.0679 -23.3996 -0.1402 -15.1715 -11.3598 -29.5147 -0.7932 -9.0691 2.5189 3.57812e-015 -2.38542e-015 -3.18055e-015 0.8272 -3.3923 0.5977 -8.74653e-015 -2.38542e-015 6.36111e-015 0.565 -2.3158 0.4082 -7.95139e-016 -3.18055e-015 3.18055e-015 -0.916 -9.2044 0.2193 3.57812e-015 -2.38542e-015 -3.18055e-015 -0.0117 -4.1944 -0.0248 0.0129824 0.00232452 -7.94607e-005 -0.0071 -2.3249 -0.0142 4.37326e-015 -2.38542e-015 3.18055e-015 -0.6113 -8.7231 -2.0637 3.57812e-015 -2.38542e-015 -3.18055e-015 0.1927 -3.8059 -0.2383 0.0162995 0.00302954 -0.000872286 0.1091 -2.1688 -0.1362 -2.5271e-006 2.58229e-006 -2.59542e-006 0.6151 -8.0947 -3.564 3.57812e-015 -2.38542e-015 -3.18055e-015 0.4882 -2.341 -0.6462 0.0145631 0.00367298 -0.0032502 0.3574 -1.7166 -0.4742 1.65238e-006 1.29312e-006 -6.4981e-006 1.4199 -1.8761 1.4221 3.57812e-015 -2.38542e-015 -3.18055e-015 1.1472 -3.4929 2.6336 -8.74653e-015 -2.38542e-015 6.36111e-015 0.8229 -2.3 1.6571 -7.95139e-016 -3.18055e-015 3.18055e-015 -9.412 3.9771 -0.7758 -42.3861 -48.3447 -72.7209 -0.7531 -40.938 0 -121.909 41.2849 138.982 -7.10543e-015 -40.1986 0 -17.8152 -5.03088 -33.5154 7.10543e-015 -4.4182 9.239 -2.14903e-006 -4.63688e-007 1.09183e-006 9.4119 3.9773 -0.7758 58.5377 -50.4987 85.9752 0.7532 -40.9383 3.55271e-015 131.771 40.962 -126.363 3.55271e-015 -40.1986 -7.10543e-015 23.3642 -12.2633 11.2638 3.55271e-015 -4.4182 9.239 -5.57358e-007 5.638e-007 1.41156e-006 
